# xmcd
#
# Track frame offsets:
#	150
#	13527
#	25075
#	35500
#	61355
#	72930
#	87625
#	98080
#	108270
#	122350
#	143615
#	155127
#	172512
#	180790
#	191385
#	212002
#	224980
#	238637
#	253420
#
# Disc length: 3385 seconds
#
# Revision: 1
# Processed by: cddbd v1.5.2PL0 Copyright (c) Steve Scherf et al.
# Submitted via: audiograbber 1.83.01
#
DISCID=020d3713
DTITLE=Various Artist - Keep on indo Rockin' 8
DYEAR=2002
DGENRE=Indo Rock
TTITLE0=Crazy Cadillac - Only You
TTITLE1=New Line - Route 66
TTITLE2=Shaking Hearts - Rip it Up
TTITLE3=John "Black Boy" Walton - Green Green Grass of Home
TTITLE4=Mark Lavender - Move It
TTITLE5=Danny Everett - Sweet Little Liza
TTITLE6=Andy Tielman - Crying in the Chapel
TTITLE7=Adventure - Let's Dance
TTITLE8=Rockin' Teens - Go Out of my Live
TTITLE9=Eastern Aces - Harbor Lights
TTITLE10=Crusaders - A Rockin' Good Way
TTITLE11=Andy White - Ask Me Baby
TTITLE12=Sky Devils - Linda You
TTITLE13=New Savages - Make Love to Me #2 
TTITLE14=Entertainers - Wedding Bells
TTITLE15=Southern Rockers - Moving on
TTITLE16=Rockin' Thunders - Teddy Bear
TTITLE17=Tasty - Paradise
TTITLE18=onbekend - Keep on indo Rockin' 
EXTD=
EXTT0=
EXTT1=
EXTT2=
EXTT3=
EXTT4=
EXTT5=
EXTT6=
EXTT7=
EXTT8=
EXTT9=
EXTT10=
EXTT11=
EXTT12=
EXTT13=
EXTT14=
EXTT15=
EXTT16=
EXTT17=
EXTT18=
PLAYORDER=
